<?xml version="1.0" encoding="UTF-8"?>
<svg width="189px" height="24px" viewBox="0 0 189 24" version="1.1" xmlns="http://www.w3.org/2000/svg" xmlns:xlink="http://www.w3.org/1999/xlink">
    <!-- Generator: Sketch 52.2 (67145) - http://www.bohemiancoding.com/sketch -->
    <title>🐇ロゴ</title>
    <desc>Created with Sketch.</desc>
    <g id="Page-1" stroke="none" stroke-width="1" fill="none" fill-rule="evenodd">
        <g id="dashboard" transform="translate(-30.000000, -22.000000)">
            <g id="ヘッダー" transform="translate(0.000000, -1.000000)">
                <g id="🐇ロゴ" transform="translate(30.000000, 22.000000)">
                    <path d="M176.989538,13.0055788 L176.989538,17.0083682 C176.989538,13.9741187 176.989538,12.6398556 176.989538,13.0055788 Z M189,25 L184.996513,25 L176.989538,25 L173,25 L173,13.0055788 C173,11.8991112 173.209239,10.8600699 173.627724,9.88842399 C174.04621,8.91677803 174.615806,8.06834393 175.33653,7.34309623 C176.057254,6.61784854 176.903512,6.0460272 177.875327,5.62761506 C178.847142,5.20920293 179.886365,5 180.993025,5 C182.099686,5 183.138908,5.20920293 184.110724,5.62761506 C185.082539,6.0460272 185.931121,6.61784854 186.656495,7.34309623 C187.381869,8.06834393 187.95379,8.91677803 188.372276,9.88842399 C188.790761,10.8600699 189,11.8991112 189,13.0055788 L189,25 Z" id="A" fill="#FB929E"></path>
                    <path d="M177.54565,2.04647145 L178.061541,2.19397809 C178.827688,2.41303965 179.390696,3.06600184 179.494635,3.85604407 L179.990958,7.62860876 C180.078369,8.29302551 179.610614,8.90250266 178.946197,8.98991408 C178.781486,9.01158367 178.61408,8.99919939 178.45435,8.95352855 L177.938459,8.80602191 C177.172312,8.58696035 176.609304,7.93399816 176.505365,7.14395593 L176.009042,3.37139124 C175.921631,2.70697449 176.389386,2.09749734 177.053803,2.01008592 C177.218514,1.98841633 177.38592,2.00080061 177.54565,2.04647145 Z" id="Rectangle-2" fill="#FB929E" fill-rule="nonzero" transform="translate(178.000000, 5.500000) rotate(-17.000000) translate(-178.000000, -5.500000) "></path>
                    <path d="M185.00416,2.31301463 L185.638812,2.06737537 C186.154723,1.86769427 186.734825,2.12404947 186.934506,2.63996073 C187.001616,2.81334959 187.019143,3.00199467 186.985127,3.1847794 L186.240177,7.18773466 C186.11332,7.86939278 185.642459,8.43671477 184.99584,8.68698537 L184.361188,8.93262463 C183.845277,9.13230573 183.265175,8.87595053 183.065494,8.36003927 C182.998384,8.18665041 182.980857,7.99800533 183.014873,7.8152206 L183.759823,3.81226534 C183.88668,3.13060722 184.357541,2.56328523 185.00416,2.31301463 Z" id="Rectangle-2" fill="#FB929E" fill-rule="nonzero" transform="translate(185.000000, 5.500000) rotate(26.000000) translate(-185.000000, -5.500000) "></path>
                    <path d="M181,15 C181.552285,15 182,14.6913388 182,14.3105858 C182,13.9298329 181.552285,14.0062741 181,14.0062741 C180.447715,14.0062741 180,13.9298329 180,14.3105858 C180,14.6913388 180.447715,15 181,15 Z" id="Oval" fill="#FFFFFF" fill-rule="nonzero"></path>
                    <path d="M10.6367188,24 L6.7265625,24 L6.7265625,17.8613281 C5.86067275,17.642577 5.06543331,17.2916691 4.34082031,16.8085938 C3.61620731,16.3255184 2.99414322,15.7490268 2.47460938,15.0791016 C1.95507553,14.4091763 1.55175925,13.6663452 1.26464844,12.8505859 C0.977537627,12.0348267 0.833984375,11.1757858 0.833984375,10.2734375 L0.833984375,4.39453125 L4.7578125,4.39453125 L4.7578125,10.2734375 C4.7578125,10.8112006 4.86035054,11.3193335 5.06542969,11.7978516 C5.27050884,12.2763696 5.55077947,12.6933576 5.90625,13.0488281 C6.26172053,13.4042987 6.67870854,13.6845693 7.15722656,13.8896484 C7.63574458,14.0947276 8.14387752,14.1972656 8.68164062,14.1972656 C9.21940373,14.1972656 9.72753667,14.0947276 10.2060547,13.8896484 C10.6845727,13.6845693 11.1015607,13.4042987 11.4570312,13.0488281 C11.8125018,12.6933576 12.0927724,12.2763696 12.2978516,11.7978516 C12.5029307,11.3193335 12.6054688,10.8112006 12.6054688,10.2734375 L12.6054688,4.39453125 L16.515625,4.39453125 L16.515625,10.2734375 C16.515625,11.1757858 16.3720717,12.0348267 16.0849609,12.8505859 C15.7978501,13.6663452 15.3945338,14.4091763 14.875,15.0791016 C14.3554662,15.7490268 13.7356807,16.3255184 13.015625,16.8085938 C12.2955693,17.2916691 11.5026085,17.642577 10.6367188,17.8613281 L10.6367188,24 Z M37.6445312,16.1660156 C37.6445312,17.2506565 37.4394552,18.269201 37.0292969,19.2216797 C36.6191386,20.1741584 36.0585973,21.0035772 35.3476562,21.7099609 C34.6367152,22.4163447 33.8050178,22.9746073 32.8525391,23.3847656 C31.9000603,23.7949239 30.8815158,24 29.796875,24 C28.7122342,24 27.6936897,23.7949239 26.7412109,23.3847656 C25.7887322,22.9746073 24.9593134,22.4163447 24.2529297,21.7099609 C23.5465459,21.0035772 22.9882833,20.1741584 22.578125,19.2216797 C22.1679667,18.269201 21.9628906,17.2506565 21.9628906,16.1660156 L21.9628906,4.39453125 L25.8730469,4.39453125 L25.8730469,16.1660156 C25.8730469,16.7037787 25.9755849,17.209633 26.1806641,17.6835938 C26.3857432,18.1575545 26.6660138,18.5722638 27.0214844,18.9277344 C27.3769549,19.2832049 27.7939429,19.5634755 28.2724609,19.7685547 C28.750979,19.9736338 29.2591119,20.0761719 29.796875,20.0761719 C30.3346381,20.0761719 30.842771,19.9736338 31.3212891,19.7685547 C31.7998071,19.5634755 32.2167951,19.2832049 32.5722656,18.9277344 C32.9277362,18.5722638 33.2080068,18.1575545 33.4130859,17.6835938 C33.6181651,17.209633 33.7207031,16.7037787 33.7207031,16.1660156 L33.7207031,4.39453125 L37.6445312,4.39453125 L37.6445312,16.1660156 Z M47.9726562,24 L44.0488281,24 L44.0488281,4.39453125 L47.9726562,4.39453125 L47.9726562,14.1972656 L55.2734375,4.39453125 L59.7304688,4.39453125 L53.5371094,12.6660156 L59.7304688,24 L55.2734375,24 L50.9667969,16.0703125 L47.9726562,20.0761719 L47.9726562,24 Z M68.4726562,24 L64.5488281,24 L64.5488281,4.39453125 L68.4726562,4.39453125 L68.4726562,24 Z M90.5722656,16.1660156 C90.5722656,17.2506565 90.3671896,18.269201 89.9570312,19.2216797 C89.5468729,20.1741584 88.9863317,21.0035772 88.2753906,21.7099609 C87.5644496,22.4163447 86.7327522,22.9746073 85.7802734,23.3847656 C84.8277947,23.7949239 83.8092502,24 82.7246094,24 C81.6399685,24 80.621424,23.7949239 79.6689453,23.3847656 C78.7164666,22.9746073 77.8870478,22.4163447 77.1806641,21.7099609 C76.4742803,21.0035772 75.9160177,20.1741584 75.5058594,19.2216797 C75.0957011,18.269201 74.890625,17.2506565 74.890625,16.1660156 L74.890625,4.39453125 L78.8007812,4.39453125 L78.8007812,16.1660156 C78.8007812,16.7037787 78.9033193,17.209633 79.1083984,17.6835938 C79.3134776,18.1575545 79.5937482,18.5722638 79.9492188,18.9277344 C80.3046893,19.2832049 80.7216773,19.5634755 81.2001953,19.7685547 C81.6787133,19.9736338 82.1868463,20.0761719 82.7246094,20.0761719 C83.2623725,20.0761719 83.7705054,19.9736338 84.2490234,19.7685547 C84.7275415,19.5634755 85.1445295,19.2832049 85.5,18.9277344 C85.8554705,18.5722638 86.1357412,18.1575545 86.3408203,17.6835938 C86.5458995,17.209633 86.6484375,16.7037787 86.6484375,16.1660156 L86.6484375,4.39453125 L90.5722656,4.39453125 L90.5722656,16.1660156 Z M95.828125,10.2734375 C95.828125,9.46223553 95.9830714,8.70117543 96.2929688,7.99023438 C96.6028661,7.27929332 97.0244114,6.65722923 97.5576172,6.12402344 C98.090823,5.59081765 98.7128871,5.16927238 99.4238281,4.859375 C100.134769,4.54947762 100.895829,4.39453125 101.707031,4.39453125 L110.703125,4.39453125 L110.703125,8.31835938 L101.707031,8.31835938 C101.433592,8.31835938 101.178387,8.36848908 100.941406,8.46875 C100.704426,8.56901092 100.497071,8.70800692 100.319336,8.88574219 C100.141601,9.06347745 100.002605,9.27083215 99.9023438,9.5078125 C99.8020828,9.74479285 99.7519531,9.99999863 99.7519531,10.2734375 C99.7519531,10.5468764 99.8020828,10.8043608 99.9023438,11.0458984 C100.002605,11.2874361 100.141601,11.4970694 100.319336,11.6748047 C100.497071,11.85254 100.704426,11.991536 100.941406,12.0917969 C101.178387,12.1920578 101.433592,12.2421875 101.707031,12.2421875 L105.630859,12.2421875 C106.442061,12.2421875 107.2054,12.3948552 107.920898,12.7001953 C108.636397,13.0055354 109.26074,13.424802 109.793945,13.9580078 C110.327151,14.4912136 110.746418,15.1155563 111.051758,15.8310547 C111.357098,16.5465531 111.509766,17.3098918 111.509766,18.1210938 C111.509766,18.9322957 111.357098,19.6933558 111.051758,20.4042969 C110.746418,21.1152379 110.327151,21.737302 109.793945,22.2705078 C109.26074,22.8037136 108.636397,23.2252589 107.920898,23.5351562 C107.2054,23.8450536 106.442061,24 105.630859,24 L96.921875,24 L96.921875,20.0761719 L105.630859,20.0761719 C105.904298,20.0761719 106.159504,20.0260422 106.396484,19.9257812 C106.633465,19.8255203 106.840819,19.6865243 107.018555,19.5087891 C107.19629,19.3310538 107.335286,19.1236991 107.435547,18.8867188 C107.535808,18.6497384 107.585938,18.3945326 107.585938,18.1210938 C107.585938,17.8476549 107.535808,17.5924491 107.435547,17.3554688 C107.335286,17.1184884 107.19629,16.9111337 107.018555,16.7333984 C106.840819,16.5556632 106.633465,16.4166672 106.396484,16.3164062 C106.159504,16.2161453 105.904298,16.1660156 105.630859,16.1660156 L101.707031,16.1660156 C100.895829,16.1660156 100.134769,16.0110693 99.4238281,15.7011719 C98.7128871,15.3912745 98.090823,14.9697292 97.5576172,14.4365234 C97.0244114,13.9033176 96.6028661,13.2789749 96.2929688,12.5634766 C95.9830714,11.8479782 95.828125,11.0846395 95.828125,10.2734375 Z M128.619141,16.1660156 L128.619141,12.2421875 C128.619141,11.7044244 128.516603,11.1962915 128.311523,10.7177734 C128.106444,10.2392554 127.826174,9.8222674 127.470703,9.46679688 C127.115233,9.11132635 126.698245,8.83105571 126.219727,8.62597656 C125.741209,8.42089741 125.233076,8.31835938 124.695312,8.31835938 C124.157549,8.31835938 123.649416,8.42089741 123.170898,8.62597656 C122.69238,8.83105571 122.275392,9.11132635 121.919922,9.46679688 C121.564451,9.8222674 121.284181,10.2392554 121.079102,10.7177734 C120.874022,11.1962915 120.771484,11.7044244 120.771484,12.2421875 L120.771484,16.1660156 L128.619141,16.1660156 Z M132.542969,24 L128.619141,24 L128.619141,20.0761719 L120.771484,20.0761719 L120.771484,24 L116.861328,24 L116.861328,12.2421875 C116.861328,11.1575467 117.066404,10.1390022 117.476562,9.18652344 C117.886721,8.23404472 118.444983,7.4023473 119.151367,6.69140625 C119.857751,5.9804652 120.68717,5.41992393 121.639648,5.00976562 C122.592127,4.59960732 123.610672,4.39453125 124.695312,4.39453125 C125.779953,4.39453125 126.798498,4.59960732 127.750977,5.00976562 C128.703455,5.41992393 129.535153,5.9804652 130.246094,6.69140625 C130.957035,7.4023473 131.517576,8.23404472 131.927734,9.18652344 C132.337893,10.1390022 132.542969,11.1575467 132.542969,12.2421875 L132.542969,24 Z M154.546875,22.0175781 C153.635412,22.7923216 152.619146,23.3870422 151.498047,23.8017578 C150.376948,24.2164734 149.210293,24.4238281 147.998047,24.4238281 C147.068355,24.4238281 146.172856,24.3030611 145.311523,24.0615234 C144.450191,23.8199858 143.645837,23.4781923 142.898438,23.0361328 C142.151038,22.5940733 141.467451,22.0654328 140.847656,21.4501953 C140.227861,20.8349579 139.699221,20.1513709 139.261719,19.3994141 C138.824217,18.6474572 138.484702,17.838546 138.243164,16.9726562 C138.001626,16.1067665 137.880859,15.208989 137.880859,14.2792969 C137.880859,13.3496047 138.001626,12.4563845 138.243164,11.5996094 C138.484702,10.7428343 138.824217,9.93848032 139.261719,9.18652344 C139.699221,8.43456655 140.227861,7.75097964 140.847656,7.13574219 C141.467451,6.52050474 142.151038,5.99414281 142.898438,5.55664062 C143.645837,5.11913844 144.450191,4.7796236 145.311523,4.53808594 C146.172856,4.29654827 147.068355,4.17578125 147.998047,4.17578125 C149.210293,4.17578125 150.376948,4.38313595 151.498047,4.79785156 C152.619146,5.21256718 153.635412,5.80728779 154.546875,6.58203125 L152.496094,10 C151.903643,9.39843449 151.220056,8.92675952 150.445312,8.58496094 C149.670569,8.24316235 148.854822,8.07226562 147.998047,8.07226562 C147.141272,8.07226562 146.336918,8.23632648 145.584961,8.56445312 C144.833004,8.89257977 144.174482,9.33691126 143.609375,9.89746094 C143.044268,10.4580106 142.597658,11.1142541 142.269531,11.8662109 C141.941405,12.6181678 141.777344,13.4225218 141.777344,14.2792969 C141.777344,15.1451866 141.941405,15.9563764 142.269531,16.7128906 C142.597658,17.4694048 143.044268,18.1302055 143.609375,18.6953125 C144.174482,19.2604195 144.833004,19.7070296 145.584961,20.0351562 C146.336918,20.3632829 147.141272,20.5273438 147.998047,20.5273438 C148.490237,20.5273438 148.968748,20.4680996 149.433594,20.3496094 C149.89844,20.2311192 150.340493,20.0670583 150.759766,19.8574219 L150.759766,14.2792969 L154.546875,14.2792969 L154.546875,22.0175781 Z M164.492188,24 L160.568359,24 L160.568359,4.39453125 L164.492188,4.39453125 L164.492188,24 Z" id="YUKIUSAGI" fill="#444444"></path>
                    <path d="M121,1 L121,1 C122.104569,1 123,1.8954305 123,3 L123,6 C123,7.1045695 122.104569,8 121,8 L121,8 C119.895431,8 119,7.1045695 119,6 L119,3 C119,1.8954305 119.895431,1 121,1 Z" id="Rectangle-2" fill="#444444" fill-rule="nonzero" transform="translate(121.000000, 4.500000) rotate(-17.000000) translate(-121.000000, -4.500000) "></path>
                    <path d="M128,1 L128,1 C129.104569,1 130,1.8954305 130,3 L130,6 C130,7.1045695 129.104569,8 128,8 L128,8 C126.895431,8 126,7.1045695 126,6 L126,3 C126,1.8954305 126.895431,1 128,1 Z" id="Rectangle-2" fill="#444444" fill-rule="nonzero" transform="translate(128.000000, 4.500000) rotate(26.000000) translate(-128.000000, -4.500000) "></path>
                </g>
            </g>
        </g>
    </g>
</svg>